<svg id="Layer_1" data-name="Layer 1" xmlns="http://www.w3.org/2000/svg" viewBox="0 0 2400 1200"><defs><style>.cls-1{fill:#b23b3b;}.cls-2{fill:#fff;}</style></defs><title>laptop-sticker</title><rect class="cls-1" width="2400" height="1200"/><path class="cls-2" d="M380.21,638.43C433.4,621,461.82,579.74,461.82,512.8V412.86c0-89.82-51.06-133.86-144.5-135.62V217.88L162.93,307l154.39,89.16V337c54.64,2.64,78.48,29,78.48,92.37v67.85c0,66.94-26.59,92.61-88,92.61H222.5V440l-66-38.12V919h66V648.51h94.44L415.06,919h68.77Z"/><path class="cls-2" d="M709,553.63l-41.4-114.15H627.76V553.63H599.9V282.76h65.39c41,0,63.46,18.57,63.46,57.27v42.18c0,28.25-12,45.66-34.44,53L738,553.63ZM627.76,414.71h36c25.93,0,37.15-10.83,37.15-39.08V347c0-28.25-11.22-39.08-37.15-39.08h-36Z"/><path class="cls-2" d="M774.41,553.63V282.76H883.92v25.15H802.27v96h69.65v24.76H802.27v99.83h82.81v25.15Z"/><path class="cls-2" d="M923.77,282.76h108v25.15h-80.1v97.9h68.1v24.76h-68.1v123H923.77Z"/><path class="cls-2" d="M1142.78,486.68H1077l-13.54,66.94h-27.09l57.27-270.86h33.28l58,270.86h-28.63Zm-4.64-24.38-28.25-140.85-28.25,140.85Z"/><path class="cls-2" d="M1339.36,499.45c0,39.47-22.44,57.27-63.46,57.27h-.77c-41,0-63.46-17.41-63.46-57.27V336.94c0-37.92,22.44-57.27,63.46-57.27h.77c41,0,63.46,19.35,63.46,57.27v47.21H1311.5V343.9c0-27.86-10.45-39.08-36-39.08s-36,11.22-36,39.08V492.49c0,27.86,10.45,39.08,36,39.08s36-11.22,36-39.08V445.67h27.86Z"/><path class="cls-2" d="M1491.43,307.91H1441.9V553.63H1414V307.91H1364.9V282.76h126.53Z"/><path class="cls-2" d="M1581.59,279.67h3.1c41,0,63.46,18.57,63.46,57.27V499.45c0,38.7-22.44,57.27-63.46,57.27h-3.1c-41,0-63.46-18.57-63.46-57.27V336.94C1518.13,297.85,1540.57,279.67,1581.59,279.67Zm1.55,251.9c25.93,0,37.15-10.83,37.15-39.08V343.9c0-28.25-11.22-39.08-37.15-39.08S1546,315.65,1546,343.9V492.49C1546,520.74,1557.21,531.57,1583.13,531.57Z"/><path class="cls-2" d="M1803.7,553.63l-41.4-114.15h-39.86V553.63h-27.86V282.76H1760c41,0,63.46,18.57,63.46,57.27v42.18c0,28.25-12,45.66-34.44,53l43.72,118.41Zm-81.26-138.91h36c25.93,0,37.15-10.83,37.15-39.08V347c0-28.25-11.22-39.08-37.15-39.08h-36Z"/><path class="cls-2" d="M1870.64,553.63V282.76h27.86V553.63Z"/><path class="cls-2" d="M1947.64,553.63V282.76h28.25l79.32,205.47V282.76h25.92V553.63h-26.7l-80.87-209.34V553.63Z"/><path class="cls-2" d="M2257.58,499.45c0,39.47-22.44,57.27-63.46,57.27H2191c-41,0-63.46-17.41-63.46-57.27V336.94c0-37.92,22.44-57.27,63.46-57.27h3.1c41,0,63.46,19.35,63.46,57.27v36.37h-27.86V343.9c0-28.25-11.22-39.08-37.15-39.08s-37.15,10.83-37.15,39.08V492.49c0,28.25,11.22,39.08,37.15,39.08s37.15-10.83,37.15-39.08V442.57H2191V417.81h66.55Z"/><path class="cls-2" d="M668.53,805.84c19.91,3,24.74,19.61,24.74,33.49V874c0,24.14-15.69,41.63-47.67,41.63H595.82V704.47h50.38c32,0,45.86,17.5,45.86,41.63v26.55C692.06,786.23,687.24,804,668.53,805.84Zm-56.42-6.94H645.6c19.91,0,30.17-7.54,30.17-23.53V750.93c0-21.12-7.84-31.68-30.17-31.68H612.11ZM646.81,814h-34.7v86.89h34.7c22.33,0,30.17-10.56,30.17-31.68V837.52C677,821.53,666.72,814,646.81,814Z"/><path class="cls-2" d="M776.54,915.66H760.24V833.29L713.18,704.47h17.2l38,109.52,38-109.52h17.2L776.54,833.29Z"/><path class="cls-2" d="M896,915.66V704.47h83v15.08H912.29V801h57.32V816.1H912.29v84.47h67.58v15.08Z"/><path class="cls-2" d="M1063.43,807.35l45.25,108.31h-17.8l-38-93.53-37.71,93.53h-17.5l46.16-109.52L1001,704.47h18.1l35,88.09L1087,704.47h17.2Z"/><path class="cls-2" d="M1206.74,861.35H1150l-11.77,54.31H1122L1169,704.47h18.71l47.67,211.19h-16.9Zm-3.32-14.78-25-116.46-25,116.46Z"/><path class="cls-2" d="M1336.76,880.05h-9.35L1277.93,745.8V915.66h-15.39V704.47h16l53.1,146.32,53.7-146.32h16.9V915.66h-16.29V745.8Z"/><path class="cls-2" d="M1540.1,749.12v33.19c0,29.57-16.29,44.65-48.27,44.65h-33.49v88.7H1442V704.47h49.78C1523.81,704.47,1540.1,719.55,1540.1,749.12Zm-16.29,5.43c0-25-9.35-35-33.19-35h-32.28v92.32h32.28c23.83,0,33.19-10,33.19-35Z"/><path class="cls-2" d="M1651.42,915.66h-79.35V704.47h16.29v196.1h63.05Z"/><path class="cls-2" d="M1677.37,915.66V704.47h83v15.08h-66.68V801H1751V816.1h-57.32v84.47h67.58v15.08Z"/><path class="cls-2" d="M1805.58,915.66h-17.8v-22h17.8Z"/><path class="cls-2" d="M1935.91,873.42c0,30.17-16.29,44.65-48.27,44.65h-.6c-32,0-48.27-14.18-48.27-44.65V746.71c0-29,16.29-44.65,48.27-44.65h.6c32,0,48.27,15.69,48.27,44.65v36.2h-16.29V752.14c0-24.74-8.75-35-32.28-35s-32.28,10.26-32.28,35V868c0,24.74,8.75,35,32.28,35s32.28-10.26,32.28-35v-35.9h16.29Z"/><path class="cls-2" d="M2020.38,702.05h2.41c32,0,48.27,15.08,48.27,44.65V873.42c0,29.57-16.29,44.65-48.27,44.65h-2.41c-32,0-48.27-15.08-48.27-44.65V746.71C1972.11,716.84,1988.4,702.05,2020.38,702.05ZM2021.59,903c23.83,0,33.19-10,33.19-35V752.14c0-25-9.35-35-33.19-35s-33.19,10-33.19,35V868C1988.4,893,1997.75,903,2021.59,903Z"/><path class="cls-2" d="M2183.9,880.05h-9.35L2125.07,745.8V915.66h-15.39V704.47h16l53.1,146.32,53.7-146.32h16.9V915.66h-16.29V745.8Z"/></svg>