<svg id="Layer_1" data-name="Layer 1" xmlns="http://www.w3.org/2000/svg" viewBox="0 0 2400 1200"><defs><style>.cls-1{fill:#b23b3b;}.cls-2{font-size:392px;font-family:Rift-Medium, Rift;letter-spacing:0em;}.cls-2,.cls-7,.cls-8{fill:#fff;}.cls-3{letter-spacing:-0.03em;}.cls-4{letter-spacing:-0.01em;}.cls-5{letter-spacing:-0.01em;}.cls-6{letter-spacing:0em;}.cls-8{font-size:319px;font-family:Rift-Light, Rift;letter-spacing:-0.02em;}.cls-9{letter-spacing:-0.01em;}</style></defs><title>laptop-sticker</title><rect class="cls-1" width="2400" height="1200"/><text class="cls-2" transform="translate(558.16 574.97)">Re<tspan class="cls-3" x="325.74" y="0">f</tspan><tspan class="cls-4" x="455.1" y="0">a</tspan><tspan class="cls-5" x="616.61" y="0">ct</tspan><tspan class="cls-6" x="924.71" y="0">oring</tspan></text><path class="cls-7" d="M372.21,624.43C425.4,607,453.82,565.74,453.82,498.8V398.86c0-89.82-51.06-133.86-144.5-135.62V203.88L154.93,293l154.39,89.16V323c54.64,2.64,78.48,29,78.48,92.37v67.85c0,66.94-26.59,92.61-88,92.61H214.5V426l-66-38.12V905h66V634.51h94.44L407.06,905h68.77Z"/><text class="cls-8" transform="translate(561.16 904.97)">B<tspan class="cls-9" x="135.58" y="0">yexample.com</tspan></text></svg>