<svg id="Layer_1" data-name="Layer 1" xmlns="http://www.w3.org/2000/svg" viewBox="0 0 3686.21 395.39"><defs><style>.cls-1{fill:#b23b3b;}.cls-2{fill:#303a39;}.cls-3{fill:#fff;}</style></defs><title>masthead</title><rect class="cls-1" width="395.48" height="395.48"/><path class="cls-2" d="M612.58,342.3,569.25,228.51h-46V342.3H502.94V78.56H565.1c39.94,0,60.28,18.84,60.28,55.76v38.43c0,28.63-12.06,46.34-36.17,52.75l45.21,116.8Zm-7.54-176V141.1c0-31.27-11.68-43.71-41.44-43.71H523.28V210.05H563.6C593.36,210.05,605,197.24,605,166.35Z"/><path class="cls-2" d="M672.86,342.3V78.56H776.47V97.4H693.2V199.12h71.59V218H693.2v105.5h84.4V342.3Z"/><path class="cls-2" d="M817.53,78.56h102.1V97.4H837.88V201H908v18.84H837.88V342.3H817.53Z"/><path class="cls-2" d="M1032.29,274.48H961.45L946.76,342.3H926.42L985.19,78.56h23.36l59.53,263.74H1047ZM1028.14,256,996.87,110.58,965.6,256Z"/><path class="cls-2" d="M1218.42,289.55c0,37.68-20.35,55.76-60.28,55.76h-.75c-39.94,0-60.28-17.71-60.28-55.76V131.31c0-36.17,20.35-55.76,60.28-55.76h.75c39.94,0,60.28,19.59,60.28,55.76v45.21h-20.35V138.09c0-30.9-10.93-43.71-40.31-43.71s-40.31,12.81-40.31,43.71V282.77c0,30.89,10.93,43.71,40.31,43.71s40.31-12.81,40.31-43.71V237.93h20.35Z"/><path class="cls-2" d="M1365.35,97.4h-49.73V342.3h-20.35V97.4h-49.73V78.56h119.81Z"/><path class="cls-2" d="M1454.27,75.54h3c39.94,0,60.28,18.84,60.28,55.76V289.55c0,36.92-20.35,55.76-60.28,55.76h-3c-39.94,0-60.28-18.84-60.28-55.76V131.31C1394,94,1414.33,75.54,1454.27,75.54Zm1.51,250.93c29.76,0,41.44-12.43,41.44-43.71V138.09c0-31.27-11.68-43.71-41.44-43.71s-41.45,12.43-41.45,43.71V282.77C1414.33,314,1426,326.47,1455.77,326.47Z"/><path class="cls-2" d="M1675.43,342.3,1632.1,228.51h-46V342.3h-20.35V78.56H1628c39.94,0,60.28,18.84,60.28,55.76v38.43c0,28.63-12.06,46.34-36.17,52.75l45.21,116.8Zm-7.54-176V141.1c0-31.27-11.68-43.71-41.45-43.71h-40.31V210.05h40.31C1656.21,210.05,1667.89,197.24,1667.89,166.35Z"/><path class="cls-2" d="M1737.21,342.3V78.56h20.35V342.3Z"/><path class="cls-2" d="M1809.17,342.3V78.56h21.1l86.28,215.51V78.56h19.59V342.3h-20l-87.41-217v217Z"/><path class="cls-2" d="M2108,289.55c0,37.68-20.35,55.76-60.28,55.76h-3c-39.94,0-60.28-17.71-60.28-55.76V131.31c0-36.17,20.35-55.76,60.28-55.76h3c39.94,0,60.28,19.59,60.28,55.76V166h-20.35V138.09c0-31.27-11.68-43.71-41.44-43.71s-41.45,12.43-41.45,43.71V282.77c0,31.27,11.68,43.71,41.45,43.71s41.44-12.43,41.44-43.71V230h-43V211.56H2108Z"/><path class="cls-2" d="M2306.5,205.15c24.87,3.77,30.9,24.49,30.9,41.82V290.3c0,30.14-19.59,52-59.53,52H2215.7V78.56h62.92c39.94,0,57.27,21.85,57.27,52v33.16C2335.89,180.66,2329.86,202.89,2306.5,205.15ZM2236,196.49h41.82c24.87,0,37.68-9.42,37.68-29.39V136.58c0-26.37-9.8-39.56-37.68-39.56H2236Zm43.33,18.84H2236V323.84h43.33c27.88,0,37.68-13.19,37.68-39.56V244.71C2317.05,224.74,2304.24,215.33,2279.38,215.33Z"/><path class="cls-2" d="M2441.39,342.3H2421V239.44L2362.27,78.56h21.48l47.47,136.77,47.47-136.77h21.48l-58.78,160.88Z"/><path class="cls-2" d="M2590.58,342.3V78.56h103.61V97.4h-83.27V199.12h71.59V218h-71.59v105.5h84.4V342.3Z"/><path class="cls-2" d="M2799.68,207,2856.2,342.3H2834L2786.5,225.5l-47.1,116.8h-21.85l57.65-136.77-53.5-127h22.61l43.71,110,41.07-110h21.48Z"/><path class="cls-2" d="M2978.65,274.48h-70.83l-14.69,67.82h-20.34l58.78-263.74h23.36l59.53,263.74h-21.1ZM2974.5,256l-31.27-145.43L2912,256Z"/><path class="cls-2" d="M3141,297.84h-11.68l-61.79-167.66V342.3h-19.21V78.56h20l66.31,182.73L3201.7,78.56h21.1V342.3h-20.35V130.18Z"/><path class="cls-2" d="M3395,134.32v41.44c0,36.92-20.35,55.76-60.28,55.76h-41.82V342.3h-20.35V78.56h62.17C3374.63,78.56,3395,97.4,3395,134.32Zm-20.35,6.78c0-31.27-11.68-43.71-41.45-43.71h-40.31V212.69h40.31c29.77,0,41.45-12.43,41.45-43.71Z"/><path class="cls-2" d="M3534,342.3h-99.09V78.56h20.34v244.9H3534Z"/><path class="cls-2" d="M3566.4,342.3V78.56H3670V97.4h-83.27V199.12h71.59V218h-71.59v105.5h84.4V342.3Z"/><path class="cls-3" d="M222.4,227.11c22.23-7.28,34.11-24.53,34.11-52.5V132.84c0-37.54-21.34-55.94-60.39-56.68V51.36L131.6,88.61l64.52,37.26V101.13c22.83,1.11,32.8,12.13,32.8,38.6v28.36c0,28-11.11,38.7-36.79,38.7H156.49V144.17L128.9,128.24V344.37h27.59v-113H196l41,113h28.74Z"/></svg>